<?xml version="1.0" encoding="UTF-8" standalone="no"?>
<!-- Created with Inkscape (http://www.inkscape.org/) -->

<svg
   width="160mm"
   height="30mm"
   viewBox="0 0 160 30"
   version="1.1"
   id="svg5"
   inkscape:version="1.1.2 (0a00cf5339, 2022-02-04)"
   sodipodi:docname="graphical_abstract.svg"
   xmlns:inkscape="http://www.inkscape.org/namespaces/inkscape"
   xmlns:sodipodi="http://sodipodi.sourceforge.net/DTD/sodipodi-0.dtd"
   xmlns="http://www.w3.org/2000/svg"
   xmlns:svg="http://www.w3.org/2000/svg">
  <sodipodi:namedview
     id="namedview7"
     pagecolor="#ffffff"
     bordercolor="#666666"
     borderopacity="1.0"
     inkscape:pageshadow="2"
     inkscape:pageopacity="0.0"
     inkscape:pagecheckerboard="0"
     inkscape:document-units="mm"
     showgrid="false"
     inkscape:zoom="2.5620932"
     inkscape:cx="462.3173"
     inkscape:cy="110.84687"
     inkscape:window-width="1920"
     inkscape:window-height="1163"
     inkscape:window-x="0"
     inkscape:window-y="0"
     inkscape:window-maximized="1"
     inkscape:current-layer="layer1" />
  <defs
     id="defs2">
    <marker
       style="overflow:visible"
       id="Arrow2Lend"
       refX="0"
       refY="0"
       orient="auto"
       inkscape:stockid="Arrow2Lend"
       inkscape:isstock="true">
      <path
         transform="matrix(-1.1,0,0,-1.1,-1.1,0)"
         d="M 8.7185878,4.0337352 -2.2072895,0.01601326 8.7185884,-4.0017078 c -1.7454984,2.3720609 -1.7354408,5.6174519 -6e-7,8.035443 z"
         style="fill:context-stroke;fill-rule:evenodd;stroke:context-stroke;stroke-width:0.625;stroke-linejoin:round"
         id="path45164" />
    </marker>
    <marker
       style="overflow:visible"
       id="Arrow2Lstart"
       refX="0"
       refY="0"
       orient="auto"
       inkscape:stockid="Arrow2Lstart"
       inkscape:isstock="true">
      <path
         transform="matrix(1.1,0,0,1.1,1.1,0)"
         d="M 8.7185878,4.0337352 -2.2072895,0.01601326 8.7185884,-4.0017078 c -1.7454984,2.3720609 -1.7354408,5.6174519 -6e-7,8.035443 z"
         style="fill:context-stroke;fill-rule:evenodd;stroke:context-stroke;stroke-width:0.625;stroke-linejoin:round"
         id="path45161" />
    </marker>
    <marker
       inkscape:isstock="true"
       style="overflow:visible"
       id="marker5389"
       refX="0"
       refY="0"
       orient="auto"
       inkscape:stockid="Arrow1Mend">
      <path
         transform="matrix(-0.4,0,0,-0.4,-4,0)"
         style="fill:#969696;fill-opacity:1;fill-rule:evenodd;stroke:#969696;stroke-width:1pt;stroke-opacity:1"
         d="M 0,0 5,-5 -12.5,0 5,5 Z"
         id="path5391"
         inkscape:connector-curvature="0" />
    </marker>
    <marker
       inkscape:stockid="Arrow1Mend"
       orient="auto"
       refY="0"
       refX="0"
       id="Arrow1Mend-5"
       style="overflow:visible"
       inkscape:isstock="true">
      <path
         inkscape:connector-curvature="0"
         id="path4373-0"
         d="M 0,0 5,-5 -12.5,0 5,5 Z"
         style="fill:#000000;fill-opacity:1;fill-rule:evenodd;stroke:#000000;stroke-width:1pt;stroke-opacity:1"
         transform="matrix(-0.4,0,0,-0.4,-4,0)" />
    </marker>
    <marker
       inkscape:stockid="Arrow1Mend"
       orient="auto"
       refY="0"
       refX="0"
       id="Arrow1Mend-9"
       style="overflow:visible"
       inkscape:isstock="true">
      <path
         inkscape:connector-curvature="0"
         id="path4373-2"
         d="M 0,0 5,-5 -12.5,0 5,5 Z"
         style="fill:#000000;fill-opacity:1;fill-rule:evenodd;stroke:#000000;stroke-width:1pt;stroke-opacity:1"
         transform="matrix(-0.4,0,0,-0.4,-4,0)" />
    </marker>
    <marker
       inkscape:stockid="Arrow1Mend"
       orient="auto"
       refY="0"
       refX="0"
       id="Arrow1Mend-4"
       style="overflow:visible"
       inkscape:isstock="true">
      <path
         inkscape:connector-curvature="0"
         id="path4373-26"
         d="M 0,0 5,-5 -12.5,0 5,5 Z"
         style="fill:#000000;fill-opacity:1;fill-rule:evenodd;stroke:#000000;stroke-width:1pt;stroke-opacity:1"
         transform="matrix(-0.4,0,0,-0.4,-4,0)" />
    </marker>
    <marker
       inkscape:stockid="Arrow1Mend"
       orient="auto"
       refY="0"
       refX="0"
       id="Arrow1Mend-5-3"
       style="overflow:visible"
       inkscape:isstock="true">
      <path
         inkscape:connector-curvature="0"
         id="path4373-0-2"
         d="M 0,0 5,-5 -12.5,0 5,5 Z"
         style="fill:#000000;fill-opacity:1;fill-rule:evenodd;stroke:#000000;stroke-width:1pt;stroke-opacity:1"
         transform="matrix(-0.4,0,0,-0.4,-4,0)" />
    </marker>
    <marker
       inkscape:isstock="true"
       style="overflow:visible"
       id="marker5389-5"
       refX="0"
       refY="0"
       orient="auto"
       inkscape:stockid="Arrow1Mend">
      <path
         inkscape:connector-curvature="0"
         transform="matrix(-0.4,0,0,-0.4,-4,0)"
         style="fill:#969696;fill-opacity:1;fill-rule:evenodd;stroke:#969696;stroke-width:1pt;stroke-opacity:1"
         d="M 0,0 5,-5 -12.5,0 5,5 Z"
         id="path5391-3" />
    </marker>
    <marker
       inkscape:isstock="true"
       style="overflow:visible"
       id="marker5389-5-6"
       refX="0"
       refY="0"
       orient="auto"
       inkscape:stockid="Arrow1Mend">
      <path
         inkscape:connector-curvature="0"
         transform="matrix(-0.4,0,0,-0.4,-4,0)"
         style="fill:#969696;fill-opacity:1;fill-rule:evenodd;stroke:#969696;stroke-width:1pt;stroke-opacity:1"
         d="M 0,0 5,-5 -12.5,0 5,5 Z"
         id="path5391-3-2" />
    </marker>
    <marker
       inkscape:isstock="true"
       style="overflow:visible"
       id="marker5389-5-9"
       refX="0"
       refY="0"
       orient="auto"
       inkscape:stockid="Arrow1Mend">
      <path
         inkscape:connector-curvature="0"
         transform="matrix(-0.4,0,0,-0.4,-4,0)"
         style="fill:#969696;fill-opacity:1;fill-rule:evenodd;stroke:#969696;stroke-width:1pt;stroke-opacity:1"
         d="M 0,0 5,-5 -12.5,0 5,5 Z"
         id="path5391-3-20" />
    </marker>
    <marker
       inkscape:isstock="true"
       style="overflow:visible"
       id="marker5389-5-1"
       refX="0"
       refY="0"
       orient="auto"
       inkscape:stockid="Arrow1Mend">
      <path
         inkscape:connector-curvature="0"
         transform="matrix(-0.4,0,0,-0.4,-4,0)"
         style="fill:#969696;fill-opacity:1;fill-rule:evenodd;stroke:#969696;stroke-width:1pt;stroke-opacity:1"
         d="M 0,0 5,-5 -12.5,0 5,5 Z"
         id="path5391-3-0" />
    </marker>
    <marker
       inkscape:isstock="true"
       style="overflow:visible"
       id="marker5389-5-5"
       refX="0"
       refY="0"
       orient="auto"
       inkscape:stockid="Arrow1Mend">
      <path
         inkscape:connector-curvature="0"
         transform="matrix(-0.4,0,0,-0.4,-4,0)"
         style="fill:#969696;fill-opacity:1;fill-rule:evenodd;stroke:#969696;stroke-width:1pt;stroke-opacity:1"
         d="M 0,0 5,-5 -12.5,0 5,5 Z"
         id="path5391-3-22" />
    </marker>
    <marker
       inkscape:isstock="true"
       style="overflow:visible"
       id="marker5389-5-50"
       refX="0"
       refY="0"
       orient="auto"
       inkscape:stockid="Arrow1Mend">
      <path
         inkscape:connector-curvature="0"
         transform="matrix(-0.4,0,0,-0.4,-4,0)"
         style="fill:#969696;fill-opacity:1;fill-rule:evenodd;stroke:#969696;stroke-width:1pt;stroke-opacity:1"
         d="M 0,0 5,-5 -12.5,0 5,5 Z"
         id="path5391-3-29" />
    </marker>
    <marker
       inkscape:isstock="true"
       style="overflow:visible"
       id="marker5389-5-0"
       refX="0"
       refY="0"
       orient="auto"
       inkscape:stockid="Arrow1Mend">
      <path
         inkscape:connector-curvature="0"
         transform="matrix(-0.4,0,0,-0.4,-4,0)"
         style="fill:#969696;fill-opacity:1;fill-rule:evenodd;stroke:#969696;stroke-width:1pt;stroke-opacity:1"
         d="M 0,0 5,-5 -12.5,0 5,5 Z"
         id="path5391-3-6" />
    </marker>
    <marker
       inkscape:isstock="true"
       style="overflow:visible"
       id="marker5389-5-65"
       refX="0"
       refY="0"
       orient="auto"
       inkscape:stockid="Arrow1Mend">
      <path
         inkscape:connector-curvature="0"
         transform="matrix(-0.4,0,0,-0.4,-4,0)"
         style="fill:#969696;fill-opacity:1;fill-rule:evenodd;stroke:#969696;stroke-width:1pt;stroke-opacity:1"
         d="M 0,0 5,-5 -12.5,0 5,5 Z"
         id="path5391-3-9" />
    </marker>
    <marker
       inkscape:isstock="true"
       style="overflow:visible"
       id="marker5389-5-50-3"
       refX="0"
       refY="0"
       orient="auto"
       inkscape:stockid="Arrow1Mend">
      <path
         inkscape:connector-curvature="0"
         transform="matrix(-0.4,0,0,-0.4,-4,0)"
         style="fill:#969696;fill-opacity:1;fill-rule:evenodd;stroke:#969696;stroke-width:1pt;stroke-opacity:1"
         d="M 0,0 5,-5 -12.5,0 5,5 Z"
         id="path5391-3-29-5" />
    </marker>
    <marker
       inkscape:isstock="true"
       style="overflow:visible"
       id="marker5389-5-65-7"
       refX="0"
       refY="0"
       orient="auto"
       inkscape:stockid="Arrow1Mend">
      <path
         inkscape:connector-curvature="0"
         transform="matrix(-0.4,0,0,-0.4,-4,0)"
         style="fill:#969696;fill-opacity:1;fill-rule:evenodd;stroke:#969696;stroke-width:1pt;stroke-opacity:1"
         d="M 0,0 5,-5 -12.5,0 5,5 Z"
         id="path5391-3-9-1" />
    </marker>
    <marker
       inkscape:isstock="true"
       style="overflow:visible"
       id="marker5389-5-65-7-5"
       refX="0"
       refY="0"
       orient="auto"
       inkscape:stockid="Arrow1Mend">
      <path
         inkscape:connector-curvature="0"
         transform="matrix(-0.4,0,0,-0.4,-4,0)"
         style="fill:#33a02c;fill-opacity:1;fill-rule:evenodd;stroke:#33a02c;stroke-width:1pt;stroke-opacity:1"
         d="M 0,0 5,-5 -12.5,0 5,5 Z"
         id="path5391-3-9-1-5" />
    </marker>
    <style
       id="style47062">
      .cls-1 {
        fill: none;
      }
    </style>
  </defs>
  <g
     inkscape:label="Layer 1"
     inkscape:groupmode="layer"
     id="layer1">
    <text
       xml:space="preserve"
       style="font-style:normal;font-weight:normal;font-size:2.11667px;line-height:1.25;font-family:sans-serif;fill:#000000;fill-opacity:1;stroke:none;stroke-width:0.264583"
       x="1.7390444"
       y="23.608173"
       id="text3818"><tspan
         sodipodi:role="line"
         id="tspan3816"
         style="font-size:2.11667px;stroke-width:0.264583"
         x="1.7390444"
         y="23.608173">Prior</tspan><tspan
         sodipodi:role="line"
         style="font-size:2.11667px;stroke-width:0.264583"
         x="1.7390444"
         y="26.254011"
         id="tspan85369">knowledge</tspan><tspan
         sodipodi:role="line"
         style="font-size:2.11667px;stroke-width:0.264583"
         x="1.7390444"
         y="28.899849"
         id="tspan83979">graph</tspan></text>
    <text
       xml:space="preserve"
       style="font-style:normal;font-weight:normal;font-size:2.11667px;line-height:1.25;font-family:sans-serif;fill:#000000;fill-opacity:1;stroke:none;stroke-width:0.264583"
       x="33.94381"
       y="23.608173"
       id="text11130"><tspan
         sodipodi:role="line"
         id="tspan11128"
         style="font-size:2.11667px;stroke-width:0.264583"
         x="33.94381"
         y="23.608173">Compiled</tspan><tspan
         sodipodi:role="line"
         style="font-size:2.11667px;stroke-width:0.264583"
         x="33.94381"
         y="26.254011"
         id="tspan74792">PyTorch</tspan><tspan
         sodipodi:role="line"
         style="font-size:2.11667px;stroke-width:0.264583"
         x="33.94381"
         y="28.899849"
         id="tspan76894">model</tspan></text>
    <text
       xml:space="preserve"
       style="font-style:normal;font-weight:normal;font-size:2.11667px;line-height:1.25;font-family:sans-serif;fill:#000000;fill-opacity:1;stroke:none;stroke-width:0.264583"
       x="68.850372"
       y="23.608173"
       id="text19318"><tspan
         sodipodi:role="line"
         id="tspan19316"
         style="font-size:2.11667px;stroke-width:0.264583"
         x="68.850372"
         y="23.608173">Customized</tspan><tspan
         sodipodi:role="line"
         style="font-size:2.11667px;stroke-width:0.264583"
         x="68.850372"
         y="26.254011"
         id="tspan105805">model</tspan></text>
    <text
       xml:space="preserve"
       style="font-style:normal;font-weight:normal;font-size:2.11667px;line-height:1.25;font-family:sans-serif;fill:#000000;fill-opacity:1;stroke:none;stroke-width:0.264583"
       x="103.73971"
       y="23.608173"
       id="text27812"><tspan
         sodipodi:role="line"
         id="tspan27810"
         style="font-size:2.11667px;stroke-width:0.264583"
         x="103.73971"
         y="23.608173">Trained model</tspan></text>
    <text
       xml:space="preserve"
       style="font-style:normal;font-weight:normal;font-size:2.11667px;line-height:1.25;font-family:sans-serif;fill:#000000;fill-opacity:1;stroke:none;stroke-width:0.264583"
       x="139.46074"
       y="23.608173"
       id="text34464"><tspan
         sodipodi:role="line"
         id="tspan34462"
         style="font-size:2.11667px;stroke-width:0.264583"
         x="139.46074"
         y="23.608173">Interpretation</tspan><tspan
         sodipodi:role="line"
         style="font-size:2.11667px;stroke-width:0.264583"
         x="139.46074"
         y="26.254011"
         id="tspan40034">mapped back</tspan><tspan
         sodipodi:role="line"
         style="font-size:2.11667px;stroke-width:0.264583"
         x="139.46074"
         y="28.899849"
         id="tspan40036">to named entities</tspan></text>
    <g
       id="path45141">
      <path
         style="color:#000000;fill:#000000;-inkscape-stroke:none"
         d="M 13.003906,14.609375 13,14.847656 l 17.455078,0.1875 0.002,-0.238281 z"
         id="path1077" />
      <g
         id="g1067">
        <g
           id="path1069">
          <path
             style="color:#000000;fill:#000000;fill-rule:evenodd;stroke-width:0.163625;stroke-linejoin:round;-inkscape-stroke:none"
             d="m 27.92357,13.832116 2.848962,1.082422 -2.871499,1.021136 C 28.364631,15.3196 28.3711,14.469977 27.92357,13.832116 Z"
             id="path1073" />
          <path
             style="color:#000000;fill:#000000;fill-rule:evenodd;stroke-linejoin:round;-inkscape-stroke:none"
             d="m 27.953125,13.755859 a 0.08182068,0.08182068 0 0 0 -0.0957,0.123047 c 0.427699,0.609596 0.420604,1.420323 -0.02148,2.007813 a 0.08182068,0.08182068 0 0 0 0.0918,0.126953 l 2.873047,-1.021484 a 0.08182068,0.08182068 0 0 0 0,-0.154297 z m 0.09375,0.210938 2.490234,0.945312 -2.509765,0.892579 c 0.339627,-0.569712 0.345158,-1.253269 0.01953,-1.837891 z"
             id="path1075" />
        </g>
      </g>
    </g>
    <g
       id="g45543"
       transform="matrix(0.015625,0,0,0.015625,83.069751,2.1517674)">
      <g
         id="g45539">
        <g
           id="g45509">
          <g
             id="g45505">
            <path
               style="fill:#39526c"
               d="M 403.383,332.812 V 444.401 C 403.383,481.767 313.11,512 201.691,512 131.12,512 68.957,499.856 32.949,481.427 14.436,472.001 2.886,460.961 0.509,448.987 0.169,447.458 0,445.93 0,444.401 V 332.812 c 0,-0.34 0,-0.679 0.084,-1.018 -0.084,-0.17 -0.084,-0.255 0,-0.34 0,-0.595 0.085,-1.189 0.17,-1.783 0.085,-0.255 0.085,-0.51 0.17,-0.765 0.085,-0.68 0.254,-1.358 0.51,-2.038 v -0.085 c 0.34,-1.358 0.849,-2.633 1.444,-3.991 11.21,-24.373 61.23,-44.499 128.318,-52.907 8.747,-1.105 17.834,-2.038 27.09,-2.718 h 0.51 c 14.012,-1.104 28.535,-1.613 43.396,-1.613 14.861,0 29.383,0.509 43.395,1.613 h 0.509 c 9.256,0.68 18.343,1.613 27.09,2.718 67.089,8.407 117.108,28.534 128.318,52.907 0.595,1.358 1.104,2.633 1.444,3.991 v 0.085 c 0.255,0.68 0.424,1.358 0.509,2.038 0.17,0.849 0.255,1.613 0.34,2.548 v 0.34 c 0.086,0.339 0.086,0.678 0.086,1.018 z"
               id="path45499" />
            <path
               style="opacity:0.1;fill:#e8e8e9"
               d="m 403.383,333.152 v 5.35 c 0,37.366 -90.273,67.683 -201.692,67.683 C 90.272,406.185 0,375.868 0,338.502 v -5.35 c 0,0.849 0.084,1.613 0.169,2.378 2.633,26.326 50.274,48.916 117.958,59.191 2.378,0.34 4.671,0.68 7.049,1.019 3.821,0.594 7.643,1.104 11.549,1.529 1.614,0.085 3.312,0.255 5.01,0.509 9.427,1.019 19.193,1.784 29.213,2.293 6.709,0.339 13.503,0.594 20.382,0.679 3.397,0.085 6.879,0.085 10.361,0.085 3.482,0 6.963,0 10.36,-0.085 6.879,-0.085 13.672,-0.34 20.382,-0.679 10.021,-0.509 19.787,-1.274 29.213,-2.293 1.698,-0.254 3.397,-0.424 5.01,-0.509 3.907,-0.425 7.728,-0.935 11.549,-1.529 2.378,-0.339 4.671,-0.679 7.049,-1.019 67.684,-10.275 115.325,-32.865 117.958,-59.191 0.086,-0.765 0.171,-1.529 0.171,-2.378 z"
               id="path45501" />
            <path
               style="fill:#cedce4"
               d="m 403.383,332.472 v 0.68 c 0,0.849 -0.085,1.613 -0.17,2.378 -3.567,26.411 -50.954,48.746 -117.958,59.191 -2.378,0.34 -4.671,0.68 -7.049,1.019 -2.378,0.34 -4.756,0.594 -7.133,0.934 -1.444,0.17 -2.973,0.34 -4.416,0.595 -1.613,0.085 -3.312,0.255 -5.01,0.509 -6.285,0.594 -12.738,1.189 -19.278,1.614 -3.312,0.255 -6.624,0.509 -9.936,0.679 -6.709,0.255 -13.503,0.509 -20.382,0.679 -3.397,0.085 -6.879,0.085 -10.36,0.085 -3.482,0 -6.964,0 -10.361,-0.085 -6.879,-0.17 -13.672,-0.424 -20.382,-0.679 -3.312,-0.17 -6.624,-0.424 -9.936,-0.679 -6.539,-0.425 -12.993,-1.02 -19.278,-1.614 -1.698,-0.254 -3.397,-0.424 -5.01,-0.509 -1.443,-0.255 -2.972,-0.425 -4.416,-0.595 -2.378,-0.34 -4.756,-0.594 -7.133,-0.934 -2.378,-0.339 -4.671,-0.679 -7.049,-1.019 C 51.123,384.276 3.736,361.941 0.169,335.53 0.084,334.765 0,334.001 0,333.152 v -0.68 c 0,-0.254 0,-0.424 0.084,-0.678 -0.084,-0.17 -0.084,-0.255 0,-0.34 0.085,-0.935 0.17,-1.699 0.34,-2.548 0.085,-0.425 0.169,-0.849 0.169,-1.274 -0.084,-0.169 0,-0.339 0.085,-0.509 0,-0.17 0,-0.425 0.085,-0.68 0.17,-0.509 0.255,-1.103 0.51,-1.613 0.255,-0.765 0.595,-1.613 0.934,-2.463 10.531,-24.203 58.512,-44.245 123.308,-53.162 7.728,-1.103 15.711,-2.038 23.948,-2.717 0.085,-0.085 0.255,-0.085 0.34,-0.085 16.56,-1.529 33.969,-2.293 51.888,-2.293 17.919,0 35.328,0.764 51.888,2.293 0.085,0 0.255,0 0.34,0.085 8.238,0.679 16.221,1.614 23.948,2.717 64.796,8.917 112.778,28.959 123.308,53.162 0.594,1.359 1.104,2.718 1.444,4.076 0.17,0.85 0.17,1.614 0.339,2.463 0.17,0.849 0.255,1.613 0.34,2.548 v 0.34 c 0,0.169 0.085,0.424 0.085,0.678 z"
               id="path45503" />
          </g>
          <path
             style="fill:#cedce4"
             d="m 336.696,426.451 v 31.189 c -16.248,4.913 -34.889,8.949 -55.283,11.888 v -31.189 c 20.395,-2.939 39.035,-6.975 55.283,-11.888 z"
             id="path45507" />
        </g>
        <path
           style="opacity:0.3;fill:#040000"
           d="m 402.619,326.443 c -0.085,0.17 -0.085,0.255 -0.17,0.34 v 0.085 c -9.511,34.309 -95.708,61.144 -200.757,61.144 -105.05,0 -191.246,-26.835 -200.758,-61.144 v -0.085 c -0.085,-0.085 -0.085,-0.17 -0.085,-0.255 l -0.085,-0.085 c 0.17,-0.509 0.255,-1.103 0.51,-1.613 0.255,-0.765 0.595,-1.613 0.934,-2.463 10.531,-24.203 58.512,-44.245 123.308,-53.162 7.728,-1.103 15.711,-2.038 23.948,-2.717 0.085,-0.085 0.255,-0.085 0.34,-0.085 16.56,-1.529 33.969,-2.293 51.888,-2.293 17.919,0 35.328,0.764 51.888,2.293 0.085,0 0.255,0 0.34,0.085 8.238,0.679 16.221,1.614 23.948,2.717 64.796,8.917 112.778,28.959 123.308,53.162 0.594,1.359 1.103,2.718 1.443,4.076 z"
           id="path45511" />
        <g
           id="g45523">
          <g
             id="g45519">
            <path
               style="fill:#39526c"
               d="m 403.383,200.842 v 111.505 c 0,3.396 -0.765,6.793 -2.208,10.02 -0.085,0.17 -0.17,0.34 -0.17,0.425 -15.031,32.44 -98.51,57.153 -199.314,57.153 -100.804,0 -184.283,-24.713 -199.314,-57.153 0,-0.085 -0.085,-0.255 -0.17,-0.425 -0.34,-0.849 -0.679,-1.698 -0.934,-2.463 -0.255,-0.848 -0.51,-1.613 -0.68,-2.462 0,0 0,-0.085 0,-0.17 -0.254,-0.679 -0.34,-1.444 -0.425,-2.208 C 0.084,314.129 0,313.28 0,312.346 V 200.758 c 0,-1.954 0.34,-3.992 0.849,-5.86 0.085,-0.17 0.085,-0.34 0.17,-0.425 0.34,-1.273 0.849,-2.547 1.359,-3.736 11.295,-24.373 61.399,-44.499 128.403,-52.907 8.747,-1.104 17.749,-2.038 27.005,-2.718 14.098,-1.018 28.789,-1.613 43.906,-1.613 15.116,0 29.807,0.595 43.905,1.613 9.256,0.68 18.258,1.614 27.005,2.718 67.004,8.407 117.108,28.534 128.403,52.907 0.51,1.189 1.019,2.463 1.359,3.736 0.085,0.085 0.085,0.255 0.17,0.425 0.509,1.952 0.849,3.906 0.849,5.944 z"
               id="path45513" />
            <path
               style="opacity:0.1;fill:#e8e8e9"
               d="m 403.383,201.182 v 5.351 c 0,28.278 -51.888,52.482 -125.516,62.672 -1.699,0.17 -3.482,0.425 -5.18,0.68 -22.08,2.717 -46.029,4.246 -70.995,4.246 -24.967,0 -48.916,-1.529 -70.996,-4.246 -1.699,-0.255 -3.482,-0.51 -5.18,-0.68 C 51.888,259.015 0,234.811 0,206.533 v -5.351 c 0,0.765 0.084,1.614 0.169,2.378 2.718,26.921 52.652,49.935 122.969,59.871 0.679,0.085 1.358,0.17 2.038,0.255 5.435,0.848 10.87,1.443 16.56,2.038 2.548,0.255 5.096,0.509 7.728,0.764 2.718,0.254 5.52,0.509 8.322,0.679 h 0.51 c 10.7,0.85 21.74,1.359 33.035,1.529 3.397,0.084 6.879,0.084 10.361,0.084 3.482,0 6.963,0 10.36,-0.084 11.295,-0.17 22.335,-0.679 33.035,-1.529 h 0.509 c 2.803,-0.17 5.605,-0.425 8.322,-0.679 2.633,-0.255 5.18,-0.509 7.728,-0.764 5.69,-0.595 11.125,-1.19 16.56,-2.038 l 2.039,-0.255 c 70.316,-9.936 120.25,-32.95 122.968,-59.871 0.085,-0.764 0.17,-1.613 0.17,-2.378 z"
               id="path45515" />
            <path
               style="fill:#cedce4"
               d="m 403.383,200.418 v 0.764 c 0,0.765 -0.085,1.614 -0.17,2.378 -3.652,26.921 -53.332,49.765 -122.968,59.871 l -2.039,0.255 c -2.378,0.339 -4.756,0.594 -7.133,0.933 -3.142,0.34 -6.2,0.68 -9.426,1.105 -2.633,0.255 -5.35,0.509 -8.068,0.679 -2.803,0.254 -5.605,0.509 -8.492,0.764 -0.934,0 -1.784,0.085 -2.718,0.17 -3.312,0.255 -6.624,0.425 -9.936,0.595 -6.709,0.339 -13.503,0.594 -20.382,0.764 H 191.33 c -6.879,-0.17 -13.672,-0.425 -20.382,-0.764 -3.312,-0.17 -6.624,-0.34 -9.936,-0.595 -0.934,-0.085 -1.783,-0.17 -2.718,-0.17 -2.887,-0.255 -5.69,-0.51 -8.492,-0.764 -2.718,-0.17 -5.435,-0.424 -8.068,-0.679 -3.227,-0.425 -6.284,-0.765 -9.426,-1.105 -2.378,-0.339 -4.756,-0.594 -7.133,-0.933 -0.679,-0.085 -1.359,-0.17 -2.038,-0.255 C 53.501,253.324 3.821,230.481 0.169,203.56 0.084,202.796 0,201.947 0,201.182 v -0.764 c 0,-0.849 0.084,-1.699 0.169,-2.547 0.085,-0.85 0.17,-1.699 0.425,-2.548 0,-0.255 0.085,-0.595 0.17,-0.85 h 401.855 c 0.185,0.708 0.159,1.442 0.277,2.153 0.208,1.034 0.343,2.082 0.404,3.142 0.006,0.219 0.083,0.427 0.083,0.65 z"
               id="path45517" />
          </g>
          <path
             style="fill:#cedce4"
             d="M 336.696,294.411 V 325.6 c -16.248,4.913 -34.889,8.949 -55.283,11.888 v -31.189 c 20.395,-2.94 39.035,-6.975 55.283,-11.888 z"
             id="path45521" />
        </g>
        <path
           style="opacity:0.3;fill:#040000"
           d="m 402.534,194.472 v 0.425 c -9.766,34.309 -95.878,61.144 -200.842,61.144 -104.965,0 -191.076,-26.835 -200.843,-61.144 v -0.425 z"
           id="path45525" />
        <g
           id="g45537">
          <g
             id="g45533">
            <path
               style="fill:#39526c"
               d="m 403.383,68.787 v 111.504 c 0,3.566 -0.85,7.049 -2.378,10.445 -0.594,1.274 -1.274,2.463 -2.038,3.736 -19.363,30.573 -100.294,53.502 -197.275,53.502 -96.982,0 -177.913,-22.929 -197.276,-53.502 -0.764,-1.273 -1.444,-2.462 -2.038,-3.736 0,-0.085 -0.085,-0.255 -0.17,-0.425 -0.34,-0.763 -0.679,-1.613 -0.934,-2.462 C 1.019,187.17 0.849,186.49 0.679,185.811 0.594,185.556 0.51,185.217 0.51,184.962 0.34,184.282 0.255,183.688 0.17,183.009 0.084,182.074 0,181.225 0,180.291 V 68.702 C 0.679,31.506 90.698,1.528 201.692,1.528 c 68.617,0 129.252,11.465 165.684,29.044 21.231,10.191 34.309,22.505 35.838,35.838 0.084,0.763 0.169,1.613 0.169,2.377 z"
               id="path45527" />
            <path
               style="opacity:0.1;fill:#e8e8e9"
               d="m 403.383,69.127 v 5.35 c 0,28.958 -54.351,53.671 -130.781,63.352 -22.08,2.718 -45.943,4.246 -70.91,4.246 -24.967,0 -48.831,-1.528 -70.911,-4.246 C 54.35,128.148 0,103.435 0,74.478 v -5.35 c 0,30.402 59.616,56.049 141.736,64.541 5.266,0.51 10.615,1.019 16.05,1.443 14.098,1.02 28.789,1.614 43.906,1.614 15.116,0 29.807,-0.594 43.905,-1.614 5.435,-0.424 10.785,-0.933 16.051,-1.443 82.119,-8.493 141.735,-34.14 141.735,-64.542 z"
               id="path45529" />
            <path
               style="fill:#cedce4"
               d="m 403.383,68.363 v 0.424 c -0.51,30.487 -59.956,56.219 -141.736,64.881 -5.266,0.51 -10.615,1.019 -16.051,1.443 -14.097,1.02 -28.789,1.614 -43.905,1.614 -15.117,0 -29.808,-0.594 -43.906,-1.614 C 152.35,134.687 147,134.178 141.735,133.668 59.956,125.006 0.51,99.274 0,68.787 V 68.363 C 0,30.657 90.272,0 201.692,0 c 67.259,0 126.79,11.21 163.476,28.364 22.929,10.7 36.941,23.863 38.045,38.046 0.17,0.594 0.17,1.273 0.17,1.953 z"
               id="path45531" />
          </g>
          <path
             style="fill:#cedce4"
             d="m 336.696,162.37 v 31.189 c -16.248,4.913 -34.889,8.949 -55.283,11.888 v -31.189 c 20.395,-2.939 39.035,-6.975 55.283,-11.888 z"
             id="path45535" />
        </g>
      </g>
      <path
         style="opacity:0.2;fill:#ffffff"
         d="M 201.692,0 V 512 C 131.121,512 68.958,499.856 32.95,481.427 14.437,472.001 2.887,460.961 0.51,448.987 0.169,447.458 0,445.93 0,444.401 V 332.472 c 0,-0.254 0,-0.424 0.084,-0.678 -0.084,-0.17 -0.084,-0.255 0,-0.34 0,-0.595 0.085,-1.189 0.17,-1.783 0,-0.68 0.085,-1.36 0.34,-2.039 -0.084,-0.169 0,-0.339 0.085,-0.509 0,-0.255 0,-0.425 0.17,-0.595 0.085,-0.594 0.254,-1.103 0.425,-1.698 0.255,-0.765 0.595,-1.613 0.934,-2.463 -0.34,-0.849 -0.679,-1.698 -0.934,-2.463 -0.255,-0.848 -0.51,-1.613 -0.68,-2.462 0,0 0,-0.085 0,-0.17 C 0.34,316.593 0.254,315.828 0.169,315.064 0.084,314.129 0,313.28 0,312.346 V 200.418 c 0,-0.849 0.084,-1.699 0.169,-2.547 0.085,-0.85 0.17,-1.699 0.425,-2.548 0,-0.255 0.085,-0.51 0.255,-0.85 0.254,-1.358 0.764,-2.801 1.359,-4.161 C 1.868,189.549 1.529,188.699 1.274,187.85 1.019,187.171 0.849,186.491 0.679,185.812 0.594,185.557 0.51,185.218 0.51,184.963 0.34,184.283 0.255,183.689 0.17,183.01 0.084,182.074 0,181.225 0,180.291 V 68.363 C 0,30.657 90.272,0 201.692,0 Z"
         id="path45541" />
    </g>
    <g
       style="fill:#000000"
       id="g47075"
       transform="matrix(0.46875,0,0,0.46875,31.566494,7.1)"
       inkscape:transform-center-x="90.600668"
       inkscape:transform-center-y="-67.164088">
      <path
         d="M 28.4473,16.1055 23,13.3818 V 7 A 1,1 0 0 0 22.4473,6.1055 l -6,-3 a 1.0008,1.0008 0 0 0 -0.8946,0 l -6,3 A 1,1 0 0 0 9,7 v 6.3818 L 3.5527,16.1055 A 1,1 0 0 0 3,17 v 7 a 1,1 0 0 0 0.5527,0.8945 l 6,3 a 1.001,1.001 0 0 0 0.8946,0 L 16,25.1182 l 5.5527,2.7763 a 1.001,1.001 0 0 0 0.8946,0 l 6,-3 A 1,1 0 0 0 29,24 V 17 A 1,1 0 0 0 28.4473,16.1055 Z M 21,13.3818 l -4,2 v -4.7636 l 4,-2 z M 16,5.1182 19.7637,7 16,8.8818 12.2363,7 Z m -5,3.5 4,2 v 4.7636 l -4,-2 z m -2,16.7636 -4,-2 v -4.7636 l 4,2 z m 1,-6.5 L 6.2363,17 10,15.1182 13.7637,17 Z m 1,1.7364 4,-2 v 4.7636 l -4,2 z m 10,4.7636 -4,-2 v -4.7636 l 4,2 z m 1,-6.5 L 18.2363,17 22,15.1182 25.7637,17 Z m 5,4.5 -4,2 v -4.7636 l 4,-2 z"
         id="path47066" />
      <rect
         id="_Transparent_Rectangle_"
         data-name="&lt;Transparent Rectangle&gt;"
         class="cls-1"
         width="32"
         height="32"
         x="0"
         y="0" />
    </g>
    <text
       xml:space="preserve"
       style="font-style:normal;font-weight:normal;font-size:2.11667px;line-height:1.25;font-family:sans-serif;fill:#000000;fill-opacity:1;stroke:none;stroke-width:0.264583"
       x="13.082623"
       y="18.608173"
       id="text48355"><tspan
         sodipodi:role="line"
         id="tspan48353"
         style="font-size:2.11667px;stroke-width:0.264583"
         x="13.082623"
         y="18.608173">compile_graph()</tspan></text>
    <text
       xml:space="preserve"
       style="font-style:normal;font-weight:normal;font-size:2.11667px;line-height:1.25;font-family:sans-serif;fill:#000000;fill-opacity:1;stroke:none;stroke-width:0.264583"
       x="47.154278"
       y="18.608173"
       id="text55383"><tspan
         sodipodi:role="line"
         id="tspan55381"
         style="font-size:2.11667px;stroke-width:0.264583"
         x="47.154278"
         y="18.608173">customize_model()</tspan></text>
    <text
       xml:space="preserve"
       style="font-style:normal;font-weight:normal;font-size:2.11667px;line-height:1.25;font-family:sans-serif;fill:#000000;fill-opacity:1;stroke:none;stroke-width:0.264583"
       x="84.866791"
       y="18.608173"
       id="text59337"><tspan
         sodipodi:role="line"
         id="tspan59335"
         style="font-size:2.11667px;stroke-width:0.264583"
         x="84.866791"
         y="18.608173">PyTorch functions</tspan></text>
    <text
       xml:space="preserve"
       style="font-style:normal;font-weight:normal;font-size:2.11667px;line-height:1.25;font-family:sans-serif;fill:#000000;fill-opacity:1;stroke:none;stroke-width:0.264583"
       x="119.88226"
       y="18.608173"
       id="text69530"><tspan
         sodipodi:role="line"
         id="tspan69528"
         style="font-size:2.11667px;stroke-width:0.264583"
         x="119.88226"
         y="18.608173">interpret_model()</tspan></text>
    <g
       style="fill:#000000;stroke:none"
       id="g82440"
       transform="matrix(0.46875,0,0,0.46875,68.079017,5.5216423)"
       inkscape:transform-center-x="90.600668"
       inkscape:transform-center-y="-67.164088">
      <path
         d="M 28.4473,16.1055 23,13.3818 V 7 A 1,1 0 0 0 22.4473,6.1055 l -6,-3 a 1.0008,1.0008 0 0 0 -0.8946,0 l -6,3 A 1,1 0 0 0 9,7 v 6.3818 L 3.5527,16.1055 A 1,1 0 0 0 3,17 v 7 a 1,1 0 0 0 0.5527,0.8945 l 6,3 a 1.001,1.001 0 0 0 0.8946,0 L 16,25.1182 l 5.5527,2.7763 a 1.001,1.001 0 0 0 0.8946,0 l 6,-3 A 1,1 0 0 0 29,24 V 17 A 1,1 0 0 0 28.4473,16.1055 Z M 21,13.3818 l -4,2 v -4.7636 l 4,-2 z M 16,5.1182 19.7637,7 16,8.8818 12.2363,7 Z m -5,3.5 4,2 v 4.7636 l -4,-2 z m -2,16.7636 -4,-2 v -4.7636 l 4,2 z m 1,-6.5 L 6.2363,17 10,15.1182 13.7637,17 Z m 1,1.7364 4,-2 v 4.7636 l -4,2 z m 10,4.7636 -4,-2 v -4.7636 l 4,2 z m 1,-6.5 L 18.2363,17 22,15.1182 25.7637,17 Z m 5,4.5 -4,2 v -4.7636 l 4,-2 z"
         id="path82436"
         style="stroke:none" />
      <rect
         id="rect82438"
         data-name="&lt;Transparent Rectangle&gt;"
         class="cls-1"
         width="32"
         height="32"
         x="0"
         y="0"
         style="stroke:none" />
    </g>
    <g
       style="fill:#000000;stroke:none"
       id="g82446"
       transform="matrix(0.46875,0,0,0.46875,104.06239,5.5216423)"
       inkscape:transform-center-x="90.600668"
       inkscape:transform-center-y="-67.164088">
      <path
         d="M 28.4473,16.1055 23,13.3818 V 7 A 1,1 0 0 0 22.4473,6.1055 l -6,-3 a 1.0008,1.0008 0 0 0 -0.8946,0 l -6,3 A 1,1 0 0 0 9,7 v 6.3818 L 3.5527,16.1055 A 1,1 0 0 0 3,17 v 7 a 1,1 0 0 0 0.5527,0.8945 l 6,3 a 1.001,1.001 0 0 0 0.8946,0 L 16,25.1182 l 5.5527,2.7763 a 1.001,1.001 0 0 0 0.8946,0 l 6,-3 A 1,1 0 0 0 29,24 V 17 A 1,1 0 0 0 28.4473,16.1055 Z M 21,13.3818 l -4,2 v -4.7636 l 4,-2 z M 16,5.1182 19.7637,7 16,8.8818 12.2363,7 Z m -5,3.5 4,2 v 4.7636 l -4,-2 z m -2,16.7636 -4,-2 v -4.7636 l 4,2 z m 1,-6.5 L 6.2363,17 10,15.1182 13.7637,17 Z m 1,1.7364 4,-2 v 4.7636 l -4,2 z m 10,4.7636 -4,-2 v -4.7636 l 4,2 z m 1,-6.5 L 18.2363,17 22,15.1182 25.7637,17 Z m 5,4.5 -4,2 v -4.7636 l 4,-2 z"
         id="path82442"
         style="stroke:none" />
      <rect
         id="rect82444"
         data-name="&lt;Transparent Rectangle&gt;"
         class="cls-1"
         width="32"
         height="32"
         x="0"
         y="0"
         style="stroke:none" />
    </g>
    <g
       id="g82465"
       transform="matrix(0.18088089,0,0,0.18088089,142.40365,8.5700956)">
      <path
         d="m 0,0 c 0,12.079 -9.793,21.872 -21.872,21.872 -12.079,0 -21.871,-9.793 -21.871,-21.872 0,-12.079 9.792,-21.872 21.871,-21.872 C -9.793,-21.872 0,-12.079 0,0 Z"
         style="fill:#ffffff;fill-opacity:1;stroke:#000000;stroke-width:0.485;stroke-linecap:butt;stroke-linejoin:miter;stroke-miterlimit:4;stroke-dasharray:none;stroke-opacity:1"
         transform="matrix(0,1.25,1.25,0,30.300503,57.63988)"
         id="path82452" />
      <path
         d="M 34.961753,47.76613 V 24.192378 H 21.779252 v 2.575 h 3.85875 V 47.76613 h -3.85875 v 2.57375 h 17.041251 v -2.57375 h -3.85875"
         style="fill:#000000;fill-opacity:1;fill-rule:nonzero;stroke:none"
         id="path82454" />
      <path
         d="m 30.299253,21.526128 c 3.1975,0 5.78875,-2.59125 5.78875,-5.78875 0,-3.197501 -2.59125,-5.7900009 -5.78875,-5.7900009 -3.19875,0 -5.79,2.5924999 -5.79,5.7900009 0,3.1975 2.59125,5.78875 5.79,5.78875"
         style="fill:#000000;fill-opacity:1;fill-rule:nonzero;stroke:none"
         id="path82456" />
    </g>
    <g
       id="g84535"
       transform="matrix(0.41666667,0,0,0.41666667,1.2958331,10)">
      <path
         d="m 3.5,12 c 0.015,0 0.028,-0.004 0.042,-0.004 l 0.94,4.226 a 2.497,2.497 0 1 0 3.345,3.173 l 7.182,1.197 a 2.491,2.491 0 1 0 3.527,-2.36 L 20.438,9.994 C 20.459,9.994 20.478,10 20.5,10 A 2.5,2.5 0 1 0 18.47,6.05 L 13.94,4.038 A 2.5,2.5 0 1 0 9.248,4.566 L 5.151,7.637 A 2.495,2.495 0 1 0 3.5,12 Z m 1.018,-0.222 a 2.51,2.51 0 0 0 1.26,-1.26 l 4.226,0.94 C 10.004,11.472 10,11.485 10,11.5 a 2.484,2.484 0 0 0 0.416,1.377 l -3.54,3.54 A 2.483,2.483 0 0 0 5.5,16 c -0.014,0 -0.028,0.004 -0.042,0.004 z m 7.184,-2.635 a 2.501,2.501 0 0 0 -1.48,1.339 L 5.996,9.542 C 5.996,9.528 6,9.515 6,9.5 A 2.472,2.472 0 0 0 5.753,8.435 L 9.849,5.363 A 2.477,2.477 0 0 0 11.306,5.98 Z M 14,11 v 1 a 1,1 0 0 1 -1,1 h -1 a 1,1 0 0 1 -1,-1 v -1 a 1,1 0 0 1 1,-1 h 1 a 1,1 0 0 1 1,1 z M 15.173,19.605 7.99,18.408 A 2.483,2.483 0 0 0 7.583,17.123 l 3.54,-3.54 a 2.405,2.405 0 0 0 2.123,0.29 l 2.632,4.74 a 2.494,2.494 0 0 0 -0.706,0.992 z M 6,20 H 5 A 1,1 0 0 1 4,19 v -1 a 1,1 0 0 1 1,-1 h 1 a 1,1 0 0 1 1,1 v 1 a 1,1 0 0 1 -1,1 z m 13,0 v 1 a 1,1 0 0 1 -1,1 h -1 a 1,1 0 0 1 -1,-1 v -1 a 1,1 0 0 1 1,-1 h 1 a 1,1 0 0 1 1,1 z M 17.562,18.006 C 17.542,18.006 17.522,18 17.5,18 a 2.466,2.466 0 0 0 -0.747,0.127 l -2.632,-4.74 a 2.411,2.411 0 0 0 0.784,-2.53 l 3.638,-1.82 a 2.502,2.502 0 0 0 0.92,0.731 z M 20,6 h 1 a 1,1 0 0 1 1,1 V 8 A 1,1 0 0 1 21,9 H 20 A 1,1 0 0 1 19,8 V 7 a 1,1 0 0 1 1,-1 z m -1.939,0.963 a 2.301,2.301 0 0 0 0.034,1.18 l -3.638,1.82 A 2.483,2.483 0 0 0 12.694,9.02 L 12.298,5.857 A 2.499,2.499 0 0 0 13.529,4.949 Z M 10,4 V 3 a 1,1 0 0 1 1,-1 h 1 a 1,1 0 0 1 1,1 V 4 A 1,1 0 0 1 12,5 H 11 A 1,1 0 0 1 10,4 Z M 2,9 A 1,1 0 0 1 3,8 h 1 a 1,1 0 0 1 1,1 v 1 A 1,1 0 0 1 4,11 H 3 A 1,1 0 0 1 2,10 Z"
         id="path84523" />
      <path
         fill="none"
         d="M 0,0 H 24 V 24 H 0 Z"
         id="path84525" />
    </g>
    <g
       id="g87331"
       transform="matrix(0.0078125,0,0,0.0078125,117.48667,5.2258092)">
      <g
         id="g87327">
        <g
           id="g87297">
          <g
             id="g87293">
            <path
               style="fill:#39526c"
               d="M 403.383,332.812 V 444.401 C 403.383,481.767 313.11,512 201.691,512 131.12,512 68.957,499.856 32.949,481.427 14.436,472.001 2.886,460.961 0.509,448.987 0.169,447.458 0,445.93 0,444.401 V 332.812 c 0,-0.34 0,-0.679 0.084,-1.018 -0.084,-0.17 -0.084,-0.255 0,-0.34 0,-0.595 0.085,-1.189 0.17,-1.783 0.085,-0.255 0.085,-0.51 0.17,-0.765 0.085,-0.68 0.254,-1.358 0.51,-2.038 v -0.085 c 0.34,-1.358 0.849,-2.633 1.444,-3.991 11.21,-24.373 61.23,-44.499 128.318,-52.907 8.747,-1.105 17.834,-2.038 27.09,-2.718 h 0.51 c 14.012,-1.104 28.535,-1.613 43.396,-1.613 14.861,0 29.383,0.509 43.395,1.613 h 0.509 c 9.256,0.68 18.343,1.613 27.09,2.718 67.089,8.407 117.108,28.534 128.318,52.907 0.595,1.358 1.104,2.633 1.444,3.991 v 0.085 c 0.255,0.68 0.424,1.358 0.509,2.038 0.17,0.849 0.255,1.613 0.34,2.548 v 0.34 c 0.086,0.339 0.086,0.678 0.086,1.018 z"
               id="path87287" />
            <path
               style="opacity:0.1;fill:#e8e8e9"
               d="m 403.383,333.152 v 5.35 c 0,37.366 -90.273,67.683 -201.692,67.683 C 90.272,406.185 0,375.868 0,338.502 v -5.35 c 0,0.849 0.084,1.613 0.169,2.378 2.633,26.326 50.274,48.916 117.958,59.191 2.378,0.34 4.671,0.68 7.049,1.019 3.821,0.594 7.643,1.104 11.549,1.529 1.614,0.085 3.312,0.255 5.01,0.509 9.427,1.019 19.193,1.784 29.213,2.293 6.709,0.339 13.503,0.594 20.382,0.679 3.397,0.085 6.879,0.085 10.361,0.085 3.482,0 6.963,0 10.36,-0.085 6.879,-0.085 13.672,-0.34 20.382,-0.679 10.021,-0.509 19.787,-1.274 29.213,-2.293 1.698,-0.254 3.397,-0.424 5.01,-0.509 3.907,-0.425 7.728,-0.935 11.549,-1.529 2.378,-0.339 4.671,-0.679 7.049,-1.019 67.684,-10.275 115.325,-32.865 117.958,-59.191 0.086,-0.765 0.171,-1.529 0.171,-2.378 z"
               id="path87289" />
            <path
               style="fill:#cedce4"
               d="m 403.383,332.472 v 0.68 c 0,0.849 -0.085,1.613 -0.17,2.378 -3.567,26.411 -50.954,48.746 -117.958,59.191 -2.378,0.34 -4.671,0.68 -7.049,1.019 -2.378,0.34 -4.756,0.594 -7.133,0.934 -1.444,0.17 -2.973,0.34 -4.416,0.595 -1.613,0.085 -3.312,0.255 -5.01,0.509 -6.285,0.594 -12.738,1.189 -19.278,1.614 -3.312,0.255 -6.624,0.509 -9.936,0.679 -6.709,0.255 -13.503,0.509 -20.382,0.679 -3.397,0.085 -6.879,0.085 -10.36,0.085 -3.482,0 -6.964,0 -10.361,-0.085 -6.879,-0.17 -13.672,-0.424 -20.382,-0.679 -3.312,-0.17 -6.624,-0.424 -9.936,-0.679 -6.539,-0.425 -12.993,-1.02 -19.278,-1.614 -1.698,-0.254 -3.397,-0.424 -5.01,-0.509 -1.443,-0.255 -2.972,-0.425 -4.416,-0.595 -2.378,-0.34 -4.756,-0.594 -7.133,-0.934 -2.378,-0.339 -4.671,-0.679 -7.049,-1.019 C 51.123,384.276 3.736,361.941 0.169,335.53 0.084,334.765 0,334.001 0,333.152 v -0.68 c 0,-0.254 0,-0.424 0.084,-0.678 -0.084,-0.17 -0.084,-0.255 0,-0.34 0.085,-0.935 0.17,-1.699 0.34,-2.548 0.085,-0.425 0.169,-0.849 0.169,-1.274 -0.084,-0.169 0,-0.339 0.085,-0.509 0,-0.17 0,-0.425 0.085,-0.68 0.17,-0.509 0.255,-1.103 0.51,-1.613 0.255,-0.765 0.595,-1.613 0.934,-2.463 10.531,-24.203 58.512,-44.245 123.308,-53.162 7.728,-1.103 15.711,-2.038 23.948,-2.717 0.085,-0.085 0.255,-0.085 0.34,-0.085 16.56,-1.529 33.969,-2.293 51.888,-2.293 17.919,0 35.328,0.764 51.888,2.293 0.085,0 0.255,0 0.34,0.085 8.238,0.679 16.221,1.614 23.948,2.717 64.796,8.917 112.778,28.959 123.308,53.162 0.594,1.359 1.104,2.718 1.444,4.076 0.17,0.85 0.17,1.614 0.339,2.463 0.17,0.849 0.255,1.613 0.34,2.548 v 0.34 c 0,0.169 0.085,0.424 0.085,0.678 z"
               id="path87291" />
          </g>
          <path
             style="fill:#cedce4"
             d="m 336.696,426.451 v 31.189 c -16.248,4.913 -34.889,8.949 -55.283,11.888 v -31.189 c 20.395,-2.939 39.035,-6.975 55.283,-11.888 z"
             id="path87295" />
        </g>
        <path
           style="opacity:0.3;fill:#040000"
           d="m 402.619,326.443 c -0.085,0.17 -0.085,0.255 -0.17,0.34 v 0.085 c -9.511,34.309 -95.708,61.144 -200.757,61.144 -105.05,0 -191.246,-26.835 -200.758,-61.144 v -0.085 c -0.085,-0.085 -0.085,-0.17 -0.085,-0.255 l -0.085,-0.085 c 0.17,-0.509 0.255,-1.103 0.51,-1.613 0.255,-0.765 0.595,-1.613 0.934,-2.463 10.531,-24.203 58.512,-44.245 123.308,-53.162 7.728,-1.103 15.711,-2.038 23.948,-2.717 0.085,-0.085 0.255,-0.085 0.34,-0.085 16.56,-1.529 33.969,-2.293 51.888,-2.293 17.919,0 35.328,0.764 51.888,2.293 0.085,0 0.255,0 0.34,0.085 8.238,0.679 16.221,1.614 23.948,2.717 64.796,8.917 112.778,28.959 123.308,53.162 0.594,1.359 1.103,2.718 1.443,4.076 z"
           id="path87299" />
        <g
           id="g87311">
          <g
             id="g87307">
            <path
               style="fill:#39526c"
               d="m 403.383,200.842 v 111.505 c 0,3.396 -0.765,6.793 -2.208,10.02 -0.085,0.17 -0.17,0.34 -0.17,0.425 -15.031,32.44 -98.51,57.153 -199.314,57.153 -100.804,0 -184.283,-24.713 -199.314,-57.153 0,-0.085 -0.085,-0.255 -0.17,-0.425 -0.34,-0.849 -0.679,-1.698 -0.934,-2.463 -0.255,-0.848 -0.51,-1.613 -0.68,-2.462 0,0 0,-0.085 0,-0.17 -0.254,-0.679 -0.34,-1.444 -0.425,-2.208 C 0.084,314.129 0,313.28 0,312.346 V 200.758 c 0,-1.954 0.34,-3.992 0.849,-5.86 0.085,-0.17 0.085,-0.34 0.17,-0.425 0.34,-1.273 0.849,-2.547 1.359,-3.736 11.295,-24.373 61.399,-44.499 128.403,-52.907 8.747,-1.104 17.749,-2.038 27.005,-2.718 14.098,-1.018 28.789,-1.613 43.906,-1.613 15.116,0 29.807,0.595 43.905,1.613 9.256,0.68 18.258,1.614 27.005,2.718 67.004,8.407 117.108,28.534 128.403,52.907 0.51,1.189 1.019,2.463 1.359,3.736 0.085,0.085 0.085,0.255 0.17,0.425 0.509,1.952 0.849,3.906 0.849,5.944 z"
               id="path87301" />
            <path
               style="opacity:0.1;fill:#e8e8e9"
               d="m 403.383,201.182 v 5.351 c 0,28.278 -51.888,52.482 -125.516,62.672 -1.699,0.17 -3.482,0.425 -5.18,0.68 -22.08,2.717 -46.029,4.246 -70.995,4.246 -24.967,0 -48.916,-1.529 -70.996,-4.246 -1.699,-0.255 -3.482,-0.51 -5.18,-0.68 C 51.888,259.015 0,234.811 0,206.533 v -5.351 c 0,0.765 0.084,1.614 0.169,2.378 2.718,26.921 52.652,49.935 122.969,59.871 0.679,0.085 1.358,0.17 2.038,0.255 5.435,0.848 10.87,1.443 16.56,2.038 2.548,0.255 5.096,0.509 7.728,0.764 2.718,0.254 5.52,0.509 8.322,0.679 h 0.51 c 10.7,0.85 21.74,1.359 33.035,1.529 3.397,0.084 6.879,0.084 10.361,0.084 3.482,0 6.963,0 10.36,-0.084 11.295,-0.17 22.335,-0.679 33.035,-1.529 h 0.509 c 2.803,-0.17 5.605,-0.425 8.322,-0.679 2.633,-0.255 5.18,-0.509 7.728,-0.764 5.69,-0.595 11.125,-1.19 16.56,-2.038 l 2.039,-0.255 c 70.316,-9.936 120.25,-32.95 122.968,-59.871 0.085,-0.764 0.17,-1.613 0.17,-2.378 z"
               id="path87303" />
            <path
               style="fill:#cedce4"
               d="m 403.383,200.418 v 0.764 c 0,0.765 -0.085,1.614 -0.17,2.378 -3.652,26.921 -53.332,49.765 -122.968,59.871 l -2.039,0.255 c -2.378,0.339 -4.756,0.594 -7.133,0.933 -3.142,0.34 -6.2,0.68 -9.426,1.105 -2.633,0.255 -5.35,0.509 -8.068,0.679 -2.803,0.254 -5.605,0.509 -8.492,0.764 -0.934,0 -1.784,0.085 -2.718,0.17 -3.312,0.255 -6.624,0.425 -9.936,0.595 -6.709,0.339 -13.503,0.594 -20.382,0.764 H 191.33 c -6.879,-0.17 -13.672,-0.425 -20.382,-0.764 -3.312,-0.17 -6.624,-0.34 -9.936,-0.595 -0.934,-0.085 -1.783,-0.17 -2.718,-0.17 -2.887,-0.255 -5.69,-0.51 -8.492,-0.764 -2.718,-0.17 -5.435,-0.424 -8.068,-0.679 -3.227,-0.425 -6.284,-0.765 -9.426,-1.105 -2.378,-0.339 -4.756,-0.594 -7.133,-0.933 -0.679,-0.085 -1.359,-0.17 -2.038,-0.255 C 53.501,253.324 3.821,230.481 0.169,203.56 0.084,202.796 0,201.947 0,201.182 v -0.764 c 0,-0.849 0.084,-1.699 0.169,-2.547 0.085,-0.85 0.17,-1.699 0.425,-2.548 0,-0.255 0.085,-0.595 0.17,-0.85 h 401.855 c 0.185,0.708 0.159,1.442 0.277,2.153 0.208,1.034 0.343,2.082 0.404,3.142 0.006,0.219 0.083,0.427 0.083,0.65 z"
               id="path87305" />
          </g>
          <path
             style="fill:#cedce4"
             d="M 336.696,294.411 V 325.6 c -16.248,4.913 -34.889,8.949 -55.283,11.888 v -31.189 c 20.395,-2.94 39.035,-6.975 55.283,-11.888 z"
             id="path87309" />
        </g>
        <path
           style="opacity:0.3;fill:#040000"
           d="m 402.534,194.472 v 0.425 c -9.766,34.309 -95.878,61.144 -200.842,61.144 -104.965,0 -191.076,-26.835 -200.843,-61.144 v -0.425 z"
           id="path87313" />
        <g
           id="g87325">
          <g
             id="g87321">
            <path
               style="fill:#39526c"
               d="m 403.383,68.787 v 111.504 c 0,3.566 -0.85,7.049 -2.378,10.445 -0.594,1.274 -1.274,2.463 -2.038,3.736 -19.363,30.573 -100.294,53.502 -197.275,53.502 -96.982,0 -177.913,-22.929 -197.276,-53.502 -0.764,-1.273 -1.444,-2.462 -2.038,-3.736 0,-0.085 -0.085,-0.255 -0.17,-0.425 -0.34,-0.763 -0.679,-1.613 -0.934,-2.462 C 1.019,187.17 0.849,186.49 0.679,185.811 0.594,185.556 0.51,185.217 0.51,184.962 0.34,184.282 0.255,183.688 0.17,183.009 0.084,182.074 0,181.225 0,180.291 V 68.702 C 0.679,31.506 90.698,1.528 201.692,1.528 c 68.617,0 129.252,11.465 165.684,29.044 21.231,10.191 34.309,22.505 35.838,35.838 0.084,0.763 0.169,1.613 0.169,2.377 z"
               id="path87315" />
            <path
               style="opacity:0.1;fill:#e8e8e9"
               d="m 403.383,69.127 v 5.35 c 0,28.958 -54.351,53.671 -130.781,63.352 -22.08,2.718 -45.943,4.246 -70.91,4.246 -24.967,0 -48.831,-1.528 -70.911,-4.246 C 54.35,128.148 0,103.435 0,74.478 v -5.35 c 0,30.402 59.616,56.049 141.736,64.541 5.266,0.51 10.615,1.019 16.05,1.443 14.098,1.02 28.789,1.614 43.906,1.614 15.116,0 29.807,-0.594 43.905,-1.614 5.435,-0.424 10.785,-0.933 16.051,-1.443 82.119,-8.493 141.735,-34.14 141.735,-64.542 z"
               id="path87317" />
            <path
               style="fill:#cedce4"
               d="m 403.383,68.363 v 0.424 c -0.51,30.487 -59.956,56.219 -141.736,64.881 -5.266,0.51 -10.615,1.019 -16.051,1.443 -14.097,1.02 -28.789,1.614 -43.905,1.614 -15.117,0 -29.808,-0.594 -43.906,-1.614 C 152.35,134.687 147,134.178 141.735,133.668 59.956,125.006 0.51,99.274 0,68.787 V 68.363 C 0,30.657 90.272,0 201.692,0 c 67.259,0 126.79,11.21 163.476,28.364 22.929,10.7 36.941,23.863 38.045,38.046 0.17,0.594 0.17,1.273 0.17,1.953 z"
               id="path87319" />
          </g>
          <path
             style="fill:#cedce4"
             d="m 336.696,162.37 v 31.189 c -16.248,4.913 -34.889,8.949 -55.283,11.888 v -31.189 c 20.395,-2.939 39.035,-6.975 55.283,-11.888 z"
             id="path87323" />
        </g>
      </g>
      <path
         style="opacity:0.2;fill:#ffffff"
         d="M 201.692,0 V 512 C 131.121,512 68.958,499.856 32.95,481.427 14.437,472.001 2.887,460.961 0.51,448.987 0.169,447.458 0,445.93 0,444.401 V 332.472 c 0,-0.254 0,-0.424 0.084,-0.678 -0.084,-0.17 -0.084,-0.255 0,-0.34 0,-0.595 0.085,-1.189 0.17,-1.783 0,-0.68 0.085,-1.36 0.34,-2.039 -0.084,-0.169 0,-0.339 0.085,-0.509 0,-0.255 0,-0.425 0.17,-0.595 0.085,-0.594 0.254,-1.103 0.425,-1.698 0.255,-0.765 0.595,-1.613 0.934,-2.463 -0.34,-0.849 -0.679,-1.698 -0.934,-2.463 -0.255,-0.848 -0.51,-1.613 -0.68,-2.462 0,0 0,-0.085 0,-0.17 C 0.34,316.593 0.254,315.828 0.169,315.064 0.084,314.129 0,313.28 0,312.346 V 200.418 c 0,-0.849 0.084,-1.699 0.169,-2.547 0.085,-0.85 0.17,-1.699 0.425,-2.548 0,-0.255 0.085,-0.51 0.255,-0.85 0.254,-1.358 0.764,-2.801 1.359,-4.161 C 1.868,189.549 1.529,188.699 1.274,187.85 1.019,187.171 0.849,186.491 0.679,185.812 0.594,185.557 0.51,185.218 0.51,184.963 0.34,184.283 0.255,183.689 0.17,183.01 0.084,182.074 0,181.225 0,180.291 V 68.363 C 0,30.657 90.272,0 201.692,0 Z"
         id="path87329" />
    </g>
    <text
       xml:space="preserve"
       style="font-style:normal;font-weight:normal;font-size:2.11667px;line-height:1.25;font-family:sans-serif;fill:#000000;fill-opacity:1;stroke:none;stroke-width:0.264583"
       x="90.560493"
       y="5.3636136"
       id="text91053"><tspan
         sodipodi:role="line"
         id="tspan91051"
         style="font-size:2.11667px;stroke-width:0.264583"
         x="90.560493"
         y="5.3636136">Training</tspan><tspan
         sodipodi:role="line"
         style="font-size:2.11667px;stroke-width:0.264583"
         x="90.560493"
         y="8.0094519"
         id="tspan98795">data</tspan></text>
    <text
       xml:space="preserve"
       style="font-style:normal;font-weight:normal;font-size:2.11667px;line-height:1.25;font-family:sans-serif;fill:#000000;fill-opacity:1;stroke:none;stroke-width:0.264583"
       x="121.98016"
       y="6.9506731"
       id="text99859"><tspan
         sodipodi:role="line"
         id="tspan99855"
         style="font-size:2.11667px;stroke-width:0.264583"
         x="121.98016"
         y="6.9506731">Testing</tspan><tspan
         sodipodi:role="line"
         style="font-size:2.11667px;stroke-width:0.264583"
         x="121.98016"
         y="9.5965109"
         id="tspan99857">data</tspan></text>
    <g
       id="path107999">
      <path
         style="color:#000000;fill:#000000;-inkscape-stroke:none"
         d="m 47.927734,14.609375 -0.002,0.238281 17.455078,0.1875 0.002,-0.238281 z"
         id="path1091" />
      <g
         id="g1081">
        <g
           id="path1083">
          <path
             style="color:#000000;fill:#000000;fill-rule:evenodd;stroke-width:0.163625;stroke-linejoin:round;-inkscape-stroke:none"
             d="m 62.848592,13.832116 2.848962,1.082422 -2.871499,1.021136 c 0.463598,-0.616074 0.470067,-1.465697 0.02254,-2.103558 z"
             id="path1087" />
          <path
             style="color:#000000;fill:#000000;fill-rule:evenodd;stroke-linejoin:round;-inkscape-stroke:none"
             d="m 62.876953,13.755859 a 0.08182068,0.08182068 0 0 0 -0.0957,0.123047 c 0.427696,0.609596 0.420604,1.420323 -0.02148,2.007813 a 0.08182068,0.08182068 0 0 0 0.09375,0.126953 l 2.871093,-1.021484 a 0.08182068,0.08182068 0 0 0 0.002,-0.154297 z m 0.0957,0.210938 2.488281,0.945312 -2.509765,0.892579 c 0.339611,-0.569684 0.347061,-1.253285 0.02148,-1.837891 z"
             id="path1089" />
        </g>
      </g>
    </g>
    <g
       id="path108001">
      <path
         style="color:#000000;fill:#000000;-inkscape-stroke:none"
         d="m 84.970703,14.609375 -0.0039,0.238281 17.455083,0.1875 0.002,-0.238281 z"
         id="path1105" />
      <g
         id="g1095">
        <g
           id="path1097">
          <path
             style="color:#000000;fill:#000000;fill-rule:evenodd;stroke-width:0.163625;stroke-linejoin:round;-inkscape-stroke:none"
             d="m 99.890293,13.832116 2.848967,1.082422 -2.871504,1.021136 c 0.463594,-0.616074 0.470064,-1.465697 0.02254,-2.103558 z"
             id="path1101" />
          <path
             style="color:#000000;fill:#000000;fill-rule:evenodd;stroke-linejoin:round;-inkscape-stroke:none"
             d="m 99.919922,13.755859 a 0.08182068,0.08182068 0 0 0 -0.0957,0.123047 c 0.427691,0.609596 0.420601,1.420323 -0.02148,2.007813 a 0.08182068,0.08182068 0 0 0 0.0918,0.126953 l 2.873049,-1.021484 a 0.08182068,0.08182068 0 0 0 0,-0.154297 z m 0.09375,0.210938 2.49024,0.945312 -2.509769,0.892579 c 0.339629,-0.569712 0.345149,-1.253269 0.01953,-1.837891 z"
             id="path1103" />
        </g>
      </g>
    </g>
    <g
       id="path108003">
      <path
         style="color:#000000;fill:#000000;-inkscape-stroke:none"
         d="m 119.89453,14.609375 -0.002,0.238281 17.45508,0.1875 0.002,-0.238281 z"
         id="path1119" />
      <g
         id="g1109">
        <g
           id="path1111">
          <path
             style="color:#000000;fill:#000000;fill-rule:evenodd;stroke-width:0.163625;stroke-linejoin:round;-inkscape-stroke:none"
             d="m 134.81551,13.832116 2.84897,1.082422 -2.8715,1.021136 c 0.46359,-0.616074 0.47006,-1.465697 0.0225,-2.103558 z"
             id="path1115" />
          <path
             style="color:#000000;fill:#000000;fill-rule:evenodd;stroke-linejoin:round;-inkscape-stroke:none"
             d="m 134.81641,13.75 a 0.08182068,0.08182068 0 0 0 -0.0684,0.128906 c 0.42772,0.609596 0.42255,1.420323 -0.0195,2.007813 a 0.08182068,0.08182068 0 0 0 0.0918,0.126953 l 2.8711,-1.021484 a 0.08182068,0.08182068 0 0 0 0.002,-0.154297 l -2.84961,-1.082032 a 0.08182068,0.08182068 0 0 0 -0.0273,-0.0059 z m 0.12304,0.216797 2.48828,0.945312 -2.50976,0.892579 c 0.33967,-0.569728 0.34715,-1.253238 0.0215,-1.837891 z"
             id="path1117" />
        </g>
      </g>
    </g>
    <path
       style="fill:none;stroke:#000000;stroke-width:0.0982527;stroke-linecap:butt;stroke-linejoin:miter;stroke-miterlimit:4;stroke-dasharray:none;stroke-opacity:1;marker-start:url(#Arrow2Lstart)"
       d="M 96.354996,14.206129 C 91.12735,14.036098 88.693836,12.554826 87.801459,10.360726"
       id="path108387"
       sodipodi:nodetypes="cc" />
    <path
       style="fill:none;stroke:#000000;stroke-width:0.0982527;stroke-linecap:butt;stroke-linejoin:miter;stroke-miterlimit:4;stroke-dasharray:none;stroke-opacity:1;marker-start:url(#Arrow2Lstart)"
       d="m 128.10517,14.206129 c -5.22767,-0.170031 -7.6612,-1.651303 -8.55358,-3.845403"
       id="path108857"
       sodipodi:nodetypes="cc" />
    <text
       xml:space="preserve"
       style="font-style:normal;font-weight:normal;font-size:2.11667px;line-height:1.25;font-family:sans-serif;fill:#000000;fill-opacity:1;stroke:none;stroke-width:0.264583"
       x="47.063259"
       y="24.958179"
       id="text1087"><tspan
         sodipodi:role="line"
         id="tspan1085"
         style="font-size:2.11667px;stroke-width:0.264583"
         x="47.063259"
         y="24.958179">PyTorch functions</tspan></text>
    <text
       xml:space="preserve"
       style="font-style:normal;font-weight:normal;font-size:2.11667px;line-height:1.25;font-family:sans-serif;fill:#000000;fill-opacity:1;stroke:none;stroke-width:0.264583"
       x="54.973328"
       y="21.923481"
       id="text4467"><tspan
         sodipodi:role="line"
         id="tspan4465"
         style="font-size:2.11667px;stroke-width:0.264583"
         x="54.973328"
         y="21.923481">or</tspan></text>
  </g>
</svg>
